<svg xmlns="http://www.w3.org/2000/svg" width="93" height="93" viewBox="0 0 93 93" fill="none"><g id="logo-largroup 2" clip-path="url(#clip0_938_41028)"><g id="Group"><path id="Vector" d="M93 0H0V93H93V0Z" fill="#008E9F"></path><g id="Group_2"><path id="Vector_2" d="M76.0541 50.3315L69.2651 39.683C72.9572 38.7344 74.2034 35.6747 74.2034 32.5778C74.2034 28.8485 72.455 25.0727 66.7634 25.0727H61.8902C59.5187 25.0727 58.3004 26.3189 58.3004 28.6904V37.5905H49.5398L44.9549 25.8446C44.9549 25.8446 44.5922 24.8123 43.5692 24.8123C42.5462 24.8123 42.2393 25.8446 42.2393 25.8446L32.5859 50.3222H35.255L43.5692 28.6904L46.9451 37.5905H42.1835L41.3093 39.9713H47.8565L51.7811 50.3222H54.506L50.4698 39.9713H58.3004V50.3222H60.8672V39.9713H66.6983L73.292 50.3222H76.0634L76.0541 50.3315ZM60.8579 28.9043C60.8579 27.8813 61.3694 27.4535 62.4017 27.4535H66.1031C70.1579 27.4535 71.7482 29.5739 71.7482 32.5313C71.7482 35.4887 70.1021 37.5998 66.1031 37.5998H60.8672V28.9043H60.8579Z" fill="white"></path><path id="Vector_3" d="M19.7895 46.4999V25.082H17.2227V46.7138C17.2227 49.0946 18.4596 50.3408 20.8125 50.3408H30.6705V47.96H21.324C20.301 47.96 19.7802 47.5508 19.7802 46.5092" fill="white"></path><path id="Vector_4" d="M35.9163 62.5707C36.744 62.3568 37.3578 61.9383 37.7484 61.3431C38.1576 60.7293 38.3622 60.0039 38.3622 59.2134C38.3622 58.7112 38.2878 58.2462 38.139 57.8184C37.9809 57.3906 37.7298 57.0186 37.395 56.7024C37.0509 56.3862 36.6045 56.1444 36.0558 55.977C35.5164 55.8096 34.8468 55.7166 34.0656 55.7166H32.2614C31.1919 55.7166 30.3828 56.2467 30.3828 57.372V67.8903H31.4337V62.7009H34.8003L37.5624 67.8903H38.7714L35.9163 62.5613V62.5707ZM37.2555 59.2227C37.2555 60.8967 36.3255 61.7058 34.4097 61.7058H31.4244V57.4557C31.4244 57.1302 31.6662 56.7303 32.1405 56.7303H34.3074C35.2746 56.7303 36.0186 56.9349 36.5115 57.3534C37.0044 57.7626 37.2555 58.3857 37.2555 59.2134" fill="white"></path><path id="Vector_5" d="M52.3499 59.3247C52.0523 58.5528 51.6338 57.8646 51.1037 57.288C50.5736 56.7114 49.9412 56.2557 49.2065 55.9302C48.4811 55.6047 47.672 55.4373 46.8071 55.4373C45.9422 55.4373 45.1331 55.6047 44.4077 55.9302C43.6823 56.2557 43.0406 56.7114 42.5105 57.288C41.9804 57.8646 41.5619 58.5435 41.2643 59.3247C40.9667 60.0966 40.8086 60.9429 40.8086 61.8264C40.8086 62.7099 40.9574 63.5655 41.2643 64.3281C41.5619 65.1 41.9897 65.7696 42.5105 66.3462C43.0406 66.9135 43.673 67.3692 44.4077 67.6947C45.1331 68.0202 45.9422 68.1876 46.8071 68.1876C47.672 68.1876 48.4811 68.0202 49.2065 67.6947C49.9319 67.3692 50.5736 66.9135 51.1037 66.3462C51.6338 65.7789 52.0523 65.1 52.3499 64.3281C52.6475 63.5562 52.8056 62.7192 52.8056 61.8264C52.8056 60.9336 52.6568 60.1059 52.3499 59.3247ZM46.8071 67.1832C46.0724 67.1832 45.4028 67.0437 44.7983 66.7647C44.1938 66.495 43.673 66.1044 43.2545 65.6208C42.836 65.1372 42.5012 64.5606 42.2687 63.9096C42.0362 63.2586 41.9153 62.5518 41.9153 61.8171C41.9153 61.0824 42.0362 60.3663 42.2687 59.7153C42.5012 59.0643 42.836 58.4877 43.2545 58.0041C43.673 57.5205 44.1938 57.1392 44.7983 56.8602C45.4028 56.5812 46.0817 56.4417 46.8071 56.4417C47.5325 56.4417 48.2114 56.5812 48.8159 56.8602C49.4111 57.1392 49.9319 57.5205 50.3597 58.0041C50.7782 58.4784 51.113 59.055 51.3455 59.7153C51.578 60.3756 51.6989 61.0824 51.6989 61.8171C51.6989 62.5518 51.578 63.2586 51.3455 63.9096C51.113 64.5606 50.7782 65.1372 50.3597 65.6208C49.9412 66.1044 49.4111 66.4857 48.8159 66.7647C48.2114 67.0437 47.5325 67.1832 46.8071 67.1832Z" fill="white"></path><path id="Vector_6" d="M63.6211 55.7253V62.5794C63.6211 63.249 63.5653 63.8814 63.463 64.4487C63.3607 65.0067 63.1654 65.4996 62.8957 65.8995C62.626 66.2994 62.2633 66.6156 61.8076 66.8388C61.3519 67.062 60.7474 67.1829 60.0313 67.1829C59.3152 67.1829 58.72 67.062 58.255 66.8388C57.7993 66.6156 57.4273 66.2994 57.1576 65.8995C56.8879 65.4903 56.7019 64.9974 56.5996 64.4487C56.4973 63.8814 56.4415 63.249 56.4415 62.5794V55.7253H55.3906V63.0258C55.3906 63.7419 55.465 64.4115 55.6138 65.0346C55.7626 65.6577 56.023 66.2157 56.3764 66.6714C56.7391 67.1364 57.2227 67.5177 57.8086 67.7781C58.4038 68.0478 59.1478 68.178 60.022 68.178C60.8962 68.178 61.6402 68.0385 62.2354 67.7781C62.8306 67.5084 63.3142 67.1364 63.6676 66.6714C64.021 66.2064 64.2814 65.6577 64.4302 65.0346C64.579 64.4115 64.6627 63.7326 64.6627 63.0258V55.7253H63.6118H63.6211Z" fill="white"></path><path id="Vector_7" d="M75.8597 57.8742C75.7109 57.4371 75.4691 57.0651 75.1436 56.7396C74.8088 56.4141 74.3717 56.163 73.8323 55.9863C73.3022 55.8096 72.6326 55.7166 71.8514 55.7166H69.9821C68.9126 55.7166 68.1035 56.2467 68.1035 57.372V67.8903H69.1544V62.8125H71.8514C72.6326 62.8125 73.3022 62.7195 73.8323 62.5428C74.3717 62.3661 74.8181 62.115 75.1436 61.7895C75.4691 61.464 75.7109 61.092 75.8597 60.6549C76.0085 60.2271 76.0736 59.7528 76.0736 59.2599C76.0736 58.767 75.9992 58.2927 75.8597 57.8649M74.2601 61.1663C73.7951 61.5941 73.0697 61.8174 72.1025 61.8174H69.1544V57.4557C69.1544 57.1302 69.3962 56.7303 69.8705 56.7303H72.1025C73.0697 56.7303 73.7951 56.9442 74.2601 57.372C74.7251 57.7998 74.9576 58.4415 74.9576 59.2692C74.9576 60.0969 74.7158 60.7292 74.2601 61.1663Z" fill="white"></path><path id="Vector_8" d="M25.3139 55.9299C24.5885 55.6044 23.7794 55.437 22.9145 55.437C22.0496 55.437 21.2405 55.6044 20.5151 55.9299C19.7897 56.2554 19.148 56.7111 18.6179 57.2877C18.0878 57.8643 17.6693 58.5432 17.3717 59.3244C17.0741 60.0963 16.916 60.9333 16.916 61.8168C16.916 62.7003 17.0648 63.5559 17.3717 64.3278C17.6693 65.0904 18.0878 65.7693 18.6179 66.3459C19.148 66.9132 19.7804 67.3689 20.5151 67.6944C21.2405 68.0199 22.0496 68.1873 22.9145 68.1873C23.7794 68.1873 24.5885 68.0199 25.3139 67.6944C25.937 67.4154 26.4857 67.0341 26.96 66.5784V61.7052H23.3516V62.7096H25.9277V66.132C25.6208 66.3831 25.2767 66.6063 24.9047 66.7737C24.3002 67.0527 23.6306 67.1922 22.8959 67.1922C22.1612 67.1922 21.4916 67.0527 20.8871 66.7737C20.2826 66.504 19.7711 66.1134 19.3433 65.6298C18.9248 65.1462 18.59 64.5696 18.3575 63.9186C18.125 63.2676 18.0041 62.5608 18.0041 61.8261C18.0041 61.0914 18.125 60.3753 18.3575 59.7243C18.59 59.0733 18.9248 58.4967 19.3433 58.0131C19.7618 57.5295 20.2826 57.1482 20.8871 56.8692C21.4916 56.5902 22.1612 56.4507 22.8959 56.4507C23.6306 56.4507 24.3002 56.5902 24.9047 56.8692C25.2023 57.0087 25.4813 57.1761 25.7417 57.3621L26.216 56.4507C25.9277 56.2554 25.6208 56.0787 25.2953 55.9299" fill="white"></path></g></g></g><defs><clipPath id="clip0_938_41028"><rect width="93" height="93" fill="white"></rect></clipPath></defs></svg>